<svg width="250" height="250" viewBox="0 0 250 250" fill="none" xmlns="http://www.w3.org/2000/svg">
<path fill-rule="evenodd" clip-rule="evenodd" d="M141.956 47.9193L183.029 71.6639C184.215 70.4077 185.576 69.3295 187.069 68.4628C195.587 63.5595 206.453 66.4707 211.401 75C216.298 83.5293 213.39 94.4073 204.871 99.3614C203.389 100.216 201.791 100.853 200.128 101.253V148.759C201.773 149.159 203.353 149.792 204.821 150.638C213.39 155.592 216.298 166.471 211.35 175C206.453 183.529 195.537 186.44 187.018 181.537C185.368 180.589 183.881 179.381 182.615 177.959L141.792 201.557C142.389 203.37 142.693 205.266 142.691 207.175C142.691 216.981 134.734 225 124.889 225C115.044 225 107.087 217.032 107.087 207.175C107.087 205.423 107.338 203.731 107.807 202.132L66.7446 178.394C65.5718 179.626 64.2301 180.684 62.7598 181.537C54.1904 186.44 43.3252 183.529 38.428 175C33.5314 166.471 36.4391 155.592 44.9571 150.638C46.4245 149.792 48.0047 149.159 49.6502 148.759V101.253C47.9865 100.853 46.3889 100.216 44.9064 99.3614C36.3877 94.4588 33.48 83.5293 38.3773 75C43.2745 66.4707 54.1897 63.5595 62.7085 68.4628C64.1939 69.3249 65.548 70.3961 66.7293 71.6438L107.815 47.8929C107.33 46.247 107.085 44.5399 107.087 42.8241C107.087 32.9682 115.044 25 124.889 25C134.734 25 142.691 32.9675 142.691 42.8241C142.691 44.5958 142.434 46.3055 141.956 47.9193ZM137.676 55.2353L178.848 79.0355C178.192 81.3301 178.004 83.7332 178.295 86.102C178.586 88.4707 179.349 90.7568 180.54 92.8241C183.046 97.1892 187.129 100.083 191.66 101.211V148.777C191.429 148.833 191.199 148.895 190.971 148.96L137.198 55.7116C137.36 55.5558 137.52 55.3973 137.676 55.236V55.2353ZM112.591 55.722L58.8189 148.969C58.5864 148.902 58.3525 148.839 58.1175 148.781V101.211C62.6487 100.083 66.7314 97.1892 69.2376 92.8241C70.4309 90.7528 71.1952 88.462 71.4848 86.0884C71.7744 83.7148 71.5833 81.3071 70.923 79.0091L112.083 55.2158C112.249 55.3876 112.418 55.5565 112.591 55.7213V55.722ZM129.863 59.946L183.623 153.172C182.391 154.349 181.336 155.697 180.489 157.175C179.644 158.644 179.012 160.227 178.612 161.874H71.1668C70.7666 160.227 70.1343 158.644 69.289 157.175C68.439 155.707 67.3855 154.367 66.1598 153.195L119.93 59.9501C121.542 60.4149 123.211 60.6499 124.889 60.6482C126.616 60.6482 128.285 60.4035 129.863 59.946ZM138.054 195.167L178.958 171.521C178.836 171.135 178.726 170.745 178.63 170.352H71.1439C71.0869 170.583 71.0251 170.813 70.9591 171.042L112.063 194.804C113.723 193.075 115.715 191.702 117.919 190.764C120.123 189.827 122.494 189.347 124.889 189.351C127.367 189.347 129.819 189.862 132.086 190.864C134.354 191.865 136.387 193.331 138.054 195.167V195.167Z" fill="#E535AB"/>
</svg>
