<svg width="250" height="250" viewBox="0 0 250 250" fill="none" xmlns="http://www.w3.org/2000/svg">
<path d="M123.798 25C72.7605 25 75.9472 47.1331 75.9472 47.1331L76.0039 70.0636H124.709V76.948H56.6592C56.6592 76.948 24 73.2441 24 124.741C24 176.239 52.5057 174.413 52.5057 174.413H69.5179V150.516C69.5179 150.516 68.6008 122.01 97.5686 122.01H145.875C145.875 122.01 173.015 122.449 173.015 95.7802V51.6857C173.015 51.6857 177.137 25 123.798 25ZM96.9428 40.4203C98.0937 40.4193 99.2335 40.6452 100.297 41.0852C101.361 41.5252 102.327 42.1705 103.141 42.9843C103.955 43.7982 104.6 44.7645 105.04 45.828C105.48 46.8915 105.706 48.0313 105.705 49.1823C105.706 50.3332 105.48 51.473 105.04 52.5365C104.6 53.6 103.955 54.5664 103.141 55.3802C102.327 56.194 101.361 56.8394 100.297 57.2793C99.2335 57.7193 98.0937 57.9452 96.9428 57.9442C95.7918 57.9452 94.652 57.7193 93.5885 57.2793C92.525 56.8394 91.5587 56.194 90.7448 55.3802C89.931 54.5664 89.2857 53.6 88.8457 52.5365C88.4057 51.473 88.1798 50.3332 88.1808 49.1823C88.1798 48.0313 88.4057 46.8915 88.8457 45.828C89.2857 44.7645 89.931 43.7982 90.7448 42.9843C91.5587 42.1705 92.525 41.5252 93.5885 41.0852C94.652 40.6452 95.7918 40.4193 96.9428 40.4203V40.4203Z" fill="url(#paint0_linear)"/>
<path d="M125.248 225C176.286 225 173.099 202.867 173.099 202.867L173.042 179.937H124.337V173.053H192.386C192.386 173.053 225.045 176.757 225.045 125.258C225.045 73.7605 196.54 75.5869 196.54 75.5869H179.528V99.4834C179.528 99.4834 180.445 127.989 151.477 127.989H103.171C103.171 127.989 76.0306 127.551 76.0306 154.22V198.315C76.0306 198.315 71.9094 225 125.247 225H125.248ZM152.103 209.581C150.952 209.582 149.813 209.356 148.749 208.916C147.686 208.476 146.719 207.831 145.905 207.017C145.092 206.203 144.446 205.237 144.006 204.174C143.566 203.11 143.34 201.97 143.341 200.819C143.34 199.668 143.566 198.528 144.006 197.465C144.446 196.401 145.091 195.435 145.905 194.621C146.719 193.807 147.685 193.162 148.749 192.722C149.813 192.281 150.952 192.056 152.103 192.057C153.254 192.056 154.394 192.281 155.458 192.721C156.521 193.161 157.488 193.807 158.301 194.621C159.115 195.434 159.761 196.401 160.2 197.464C160.64 198.528 160.866 199.668 160.865 200.818C160.866 201.969 160.64 203.109 160.2 204.173C159.761 205.236 159.115 206.203 158.301 207.016C157.488 207.83 156.521 208.476 155.458 208.916C154.394 209.356 153.254 209.581 152.103 209.58V209.581Z" fill="url(#paint1_linear)"/>
<defs>
<linearGradient id="paint0_linear" x1="43.3204" y1="42.9888" x2="142.952" y2="141.627" gradientUnits="userSpaceOnUse">
<stop stop-color="#387EB8"/>
<stop offset="1" stop-color="#366994"/>
</linearGradient>
<linearGradient id="paint1_linear" x1="104.474" y1="106.328" x2="211.468" y2="207.472" gradientUnits="userSpaceOnUse">
<stop stop-color="#FFE052"/>
<stop offset="1" stop-color="#FFC331"/>
</linearGradient>
</defs>
</svg>
