<svg width="250" height="250" viewBox="0 0 250 250" fill="none" xmlns="http://www.w3.org/2000/svg">
<path d="M237.582 125.023C237.582 110.145 218.951 96.046 190.386 87.3026C196.978 58.1884 194.048 35.0252 181.139 27.6093C178.164 25.8698 174.685 25.0458 170.885 25.0458V35.2541C172.991 35.2541 174.685 35.6661 176.104 36.4443C182.329 40.0149 185.03 53.6107 182.924 71.0975C182.421 75.4005 181.597 79.9325 180.59 84.556C171.618 82.3587 161.821 80.6649 151.521 79.5663C145.341 71.0975 138.933 63.407 132.478 56.6777C147.401 42.8073 161.409 35.2083 170.931 35.2083V25C158.342 25 141.862 33.9723 125.2 49.5365C108.537 34.0639 92.057 25.1831 79.4683 25.1831V35.3914C88.9441 35.3914 102.998 42.9446 117.921 56.7235C111.512 63.4527 105.103 71.0975 99.0151 79.5663C88.6695 80.6649 78.8732 82.3587 69.9009 84.6017C68.848 80.024 68.0698 75.5837 67.5205 71.3264C65.369 53.8395 68.024 40.2438 74.2039 36.6274C75.5772 35.8034 77.3625 35.4372 79.4683 35.4372V25.2289C75.623 25.2289 72.144 26.0529 69.1227 27.7924C56.2593 35.2083 53.3754 58.3257 60.013 87.3484C31.5397 96.1376 13 110.191 13 125.023C13 139.9 31.6313 154 60.1961 162.743C53.6042 191.857 56.534 215.021 69.4431 222.436C72.4186 224.176 75.8977 225 79.743 225C92.3316 225 108.811 216.028 125.474 200.463C142.137 215.936 158.617 224.817 171.206 224.817C175.051 224.817 178.53 223.993 181.551 222.253C194.415 214.837 197.298 191.72 190.661 162.697C219.043 153.954 237.582 139.855 237.582 125.023ZM177.981 94.4896C176.287 100.395 174.181 106.483 171.801 112.572C169.924 108.909 167.955 105.247 165.804 101.585C163.698 97.9229 161.455 94.3522 159.212 90.8732C165.712 91.8345 171.984 93.0247 177.981 94.4896ZM157.015 143.242C153.444 149.422 149.782 155.282 145.982 160.729C139.162 161.324 132.249 161.645 125.291 161.645C118.379 161.645 111.466 161.324 104.691 160.775C100.892 155.327 97.184 149.514 93.6134 143.379C90.1343 137.383 86.9757 131.294 84.0918 125.16C86.93 119.026 90.1344 112.892 93.5676 106.895C97.1382 100.715 100.8 94.8558 104.6 89.4083C111.421 88.8132 118.333 88.4928 125.291 88.4928C132.203 88.4928 139.116 88.8132 145.891 89.3626C149.69 94.81 153.398 100.624 156.969 106.758C160.448 112.755 163.607 118.843 166.49 124.977C163.607 131.111 160.448 137.245 157.015 143.242ZM171.801 137.291C174.273 143.425 176.378 149.559 178.118 155.51C172.121 156.975 165.804 158.211 159.258 159.173C161.501 155.648 163.744 152.031 165.85 148.323C167.955 144.661 169.924 140.953 171.801 137.291ZM125.383 186.135C121.125 181.741 116.868 176.843 112.657 171.487C116.777 171.67 120.988 171.807 125.245 171.807C129.548 171.807 133.806 171.715 137.971 171.487C133.851 176.843 129.594 181.741 125.383 186.135ZM91.3245 159.173C84.8242 158.211 78.5527 157.021 72.556 155.556C74.2497 149.651 76.3554 143.563 78.7359 137.474C80.6127 141.136 82.5811 144.799 84.7327 148.461C86.8842 152.123 89.0815 155.694 91.3245 159.173ZM125.154 63.9105C129.411 68.3051 133.668 73.2032 137.88 78.5592C133.76 78.3761 129.548 78.2387 125.291 78.2387C120.988 78.2387 116.731 78.3303 112.565 78.5592C116.685 73.2032 120.942 68.3051 125.154 63.9105ZM91.2788 90.8732C89.0357 94.398 86.7926 98.0144 84.6869 101.722C82.5811 105.385 80.6127 109.047 78.7359 112.709C76.2639 106.575 74.1582 100.441 72.4186 94.4896C78.4154 93.0705 84.7327 91.8345 91.2788 90.8732ZM49.8505 148.186C33.6455 141.274 23.1625 132.21 23.1625 125.023C23.1625 117.836 33.6455 108.726 49.8505 101.86C53.7874 100.166 58.0904 98.6553 62.5308 97.2362C65.1401 106.209 68.5734 115.547 72.8306 125.114C68.6191 134.636 65.2316 143.929 62.6681 152.855C58.1362 151.436 53.8331 149.88 49.8505 148.186ZM74.4786 213.602C68.2529 210.031 65.5521 196.435 67.6578 178.948C68.1614 174.645 68.9854 170.113 69.9924 165.49C78.9648 167.687 88.761 169.381 99.0609 170.48C105.241 178.948 111.65 186.639 118.104 193.368C103.181 207.238 89.173 214.837 79.6514 214.837C77.5914 214.792 75.8519 214.38 74.4786 213.602ZM183.062 178.719C185.213 196.206 182.558 209.802 176.378 213.418C175.005 214.242 173.22 214.609 171.114 214.609C161.638 214.609 147.585 207.055 132.661 193.276C139.07 186.547 145.479 178.902 151.567 170.434C161.913 169.335 171.709 167.641 180.681 165.398C181.734 170.022 182.558 174.462 183.062 178.719ZM200.686 148.186C196.749 149.88 192.446 151.39 188.006 152.81C185.396 143.837 181.963 134.499 177.706 124.931C181.917 115.41 185.305 106.117 187.868 97.1904C192.4 98.6095 196.703 100.166 200.732 101.86C216.937 108.772 227.42 117.836 227.42 125.023C227.374 132.21 216.891 141.32 200.686 148.186Z" fill="#61DAFB"/>
<path d="M125.245 145.943C136.799 145.943 146.166 136.577 146.166 125.023C146.166 113.469 136.799 104.103 125.245 104.103C113.692 104.103 104.325 113.469 104.325 125.023C104.325 136.577 113.692 145.943 125.245 145.943Z" fill="#61DAFB"/>
</svg>
