<svg width="84" height="21" viewBox="0 0 84 21" fill="none" xmlns="http://www.w3.org/2000/svg">
<path d="M5.6 17.16C4.6 17.16 3.73333 16.9333 3 16.48C2.26667 16.0133 1.69333 15.3867 1.28 14.6C0.88 13.8133 0.68 12.9467 0.68 12C0.68 11.04 0.88 10.1733 1.28 9.4C1.69333 8.61333 2.26667 7.99333 3 7.54C3.73333 7.07333 4.6 6.84 5.6 6.84C6.78667 6.84 7.79333 7.14667 8.62 7.76C9.46 8.37333 10.0267 9.16667 10.32 10.14H8.7C8.47333 9.56667 8.10667 9.1 7.6 8.74C7.10667 8.38 6.50667 8.2 5.8 8.2C5.06667 8.2 4.42667 8.37333 3.88 8.72C3.33333 9.06667 2.91333 9.52667 2.62 10.1C2.32667 10.6733 2.18 11.3067 2.18 12C2.18 12.68 2.32667 13.3133 2.62 13.9C2.91333 14.4733 3.33333 14.9333 3.88 15.28C4.42667 15.6267 5.06667 15.8 5.8 15.8C6.50667 15.8 7.10667 15.62 7.6 15.26C8.10667 14.9 8.47333 14.4333 8.7 13.86H10.32C10.0267 14.8333 9.46 15.6267 8.62 16.24C7.79333 16.8533 6.78667 17.16 5.6 17.16ZM16.5189 17.16C15.5056 17.16 14.6256 16.9333 13.8789 16.48C13.1322 16.0133 12.5589 15.3867 12.1589 14.6C11.7589 13.8133 11.5589 12.9467 11.5589 12C11.5589 11.04 11.7589 10.1733 12.1589 9.4C12.5589 8.61333 13.1322 7.99333 13.8789 7.54C14.6256 7.07333 15.5056 6.84 16.5189 6.84C17.5456 6.84 18.4256 7.07333 19.1589 7.54C19.9056 7.99333 20.4789 8.61333 20.8789 9.4C21.2789 10.1733 21.4789 11.04 21.4789 12C21.4789 12.9467 21.2789 13.8133 20.8789 14.6C20.4789 15.3867 19.9056 16.0133 19.1589 16.48C18.4256 16.9333 17.5456 17.16 16.5189 17.16ZM16.5189 15.8C17.2656 15.8 17.8922 15.6267 18.3989 15.28C18.9189 14.9333 19.3122 14.4733 19.5789 13.9C19.8456 13.3133 19.9789 12.68 19.9789 12C19.9789 11.3067 19.8456 10.6733 19.5789 10.1C19.3122 9.52667 18.9189 9.06667 18.3989 8.72C17.8922 8.37333 17.2656 8.2 16.5189 8.2C15.7856 8.2 15.1589 8.37333 14.6389 8.72C14.1189 9.06667 13.7256 9.52667 13.4589 10.1C13.1922 10.6733 13.0589 11.3067 13.0589 12C13.0589 12.68 13.1922 13.3133 13.4589 13.9C13.7256 14.4733 14.1189 14.9333 14.6389 15.28C15.1589 15.6267 15.7856 15.8 16.5189 15.8ZM27.688 17.16C26.7146 17.16 25.8613 16.9333 25.128 16.48C24.408 16.0133 23.848 15.3867 23.448 14.6C23.048 13.8133 22.848 12.9467 22.848 12C22.848 11.04 23.048 10.1733 23.448 9.4C23.848 8.61333 24.408 7.99333 25.128 7.54C25.8613 7.07333 26.7146 6.84 27.688 6.84C28.5146 6.84 29.2213 7 29.808 7.32C30.408 7.64 30.8946 8.07333 31.268 8.62V3H32.768V17H31.268V15.4C30.8946 15.9333 30.408 16.36 29.808 16.68C29.2213 17 28.5146 17.16 27.688 17.16ZM27.888 15.8C28.6346 15.8 29.2613 15.6267 29.768 15.28C30.288 14.9333 30.6813 14.4733 30.948 13.9C31.2146 13.3133 31.348 12.68 31.348 12C31.348 11.3067 31.2146 10.6733 30.948 10.1C30.6813 9.52667 30.288 9.06667 29.768 8.72C29.2613 8.37333 28.6346 8.2 27.888 8.2C27.1546 8.2 26.5213 8.37333 25.988 8.72C25.4546 9.06667 25.048 9.52667 24.768 10.1C24.488 10.6733 24.348 11.3067 24.348 12C24.348 12.68 24.488 13.3133 24.768 13.9C25.048 14.4733 25.4546 14.9333 25.988 15.28C26.5213 15.6267 27.1546 15.8 27.888 15.8ZM39.8025 17.16C38.7892 17.16 37.9025 16.9333 37.1425 16.48C36.3825 16.0133 35.7892 15.3867 35.3625 14.6C34.9492 13.8133 34.7425 12.9467 34.7425 12C34.7425 11.04 34.9425 10.1733 35.3425 9.4C35.7425 8.61333 36.3158 7.99333 37.0625 7.54C37.8092 7.07333 38.6892 6.84 39.7025 6.84C40.7292 6.84 41.6092 7.07333 42.3425 7.54C43.0892 7.99333 43.6625 8.61333 44.0625 9.4C44.4625 10.1733 44.6625 11.04 44.6625 12V12.6H36.2825C36.3625 13.1867 36.5492 13.7267 36.8425 14.22C37.1492 14.7 37.5558 15.0867 38.0625 15.38C38.5692 15.66 39.1558 15.8 39.8225 15.8C40.5292 15.8 41.1225 15.6467 41.6025 15.34C42.0825 15.02 42.4558 14.6133 42.7225 14.12H44.3625C44.0158 15.0133 43.4625 15.7467 42.7025 16.32C41.9558 16.88 40.9892 17.16 39.8025 17.16ZM36.3025 11.2H43.1025C42.9692 10.3467 42.6092 9.63333 42.0225 9.06C41.4358 8.48667 40.6625 8.2 39.7025 8.2C38.7425 8.2 37.9692 8.48667 37.3825 9.06C36.8092 9.63333 36.4492 10.3467 36.3025 11.2ZM50.7531 20.96V7H52.2531V8.6C52.6265 8.05333 53.1065 7.62667 53.6931 7.32C54.2931 7 55.0065 6.84 55.8331 6.84C56.8065 6.84 57.6531 7.07333 58.3731 7.54C59.1065 7.99333 59.6731 8.61333 60.0731 9.4C60.4731 10.1733 60.6731 11.04 60.6731 12C60.6731 12.9467 60.4731 13.8133 60.0731 14.6C59.6731 15.3867 59.1065 16.0133 58.3731 16.48C57.6531 16.9333 56.8065 17.16 55.8331 17.16C55.0065 17.16 54.2931 17 53.6931 16.68C53.1065 16.3467 52.6265 15.9133 52.2531 15.38V20.96H50.7531ZM55.6331 15.8C56.3798 15.8 57.0131 15.6267 57.5331 15.28C58.0665 14.9333 58.4731 14.4733 58.7531 13.9C59.0331 13.3133 59.1731 12.68 59.1731 12C59.1731 11.3067 59.0331 10.6733 58.7531 10.1C58.4731 9.52667 58.0665 9.06667 57.5331 8.72C57.0131 8.37333 56.3798 8.2 55.6331 8.2C54.8998 8.2 54.2731 8.37333 53.7531 8.72C53.2331 9.06667 52.8398 9.52667 52.5731 10.1C52.3065 10.6733 52.1731 11.3067 52.1731 12C52.1731 12.68 52.3065 13.3133 52.5731 13.9C52.8398 14.4733 53.2331 14.9333 53.7531 15.28C54.2731 15.6267 54.8998 15.8 55.6331 15.8ZM66.9877 17.16C65.9743 17.16 65.0943 16.9333 64.3477 16.48C63.601 16.0133 63.0277 15.3867 62.6277 14.6C62.2277 13.8133 62.0277 12.9467 62.0277 12C62.0277 11.04 62.2277 10.1733 62.6277 9.4C63.0277 8.61333 63.601 7.99333 64.3477 7.54C65.0943 7.07333 65.9743 6.84 66.9877 6.84C68.0143 6.84 68.8943 7.07333 69.6277 7.54C70.3743 7.99333 70.9477 8.61333 71.3477 9.4C71.7477 10.1733 71.9477 11.04 71.9477 12C71.9477 12.9467 71.7477 13.8133 71.3477 14.6C70.9477 15.3867 70.3743 16.0133 69.6277 16.48C68.8943 16.9333 68.0143 17.16 66.9877 17.16ZM66.9877 15.8C67.7343 15.8 68.361 15.6267 68.8677 15.28C69.3877 14.9333 69.781 14.4733 70.0477 13.9C70.3143 13.3133 70.4477 12.68 70.4477 12C70.4477 11.3067 70.3143 10.6733 70.0477 10.1C69.781 9.52667 69.3877 9.06667 68.8677 8.72C68.361 8.37333 67.7343 8.2 66.9877 8.2C66.2543 8.2 65.6277 8.37333 65.1077 8.72C64.5877 9.06667 64.1943 9.52667 63.9277 10.1C63.661 10.6733 63.5277 11.3067 63.5277 12C63.5277 12.68 63.661 13.3133 63.9277 13.9C64.1943 14.4733 64.5877 14.9333 65.1077 15.28C65.6277 15.6267 66.2543 15.8 66.9877 15.8ZM75.0167 17V8.32H72.9767V7H75.0167V3.42H76.5167V7H78.8167V8.32H76.5167V17H75.0167ZM79.0286 19.22L80.1886 14.96H82.1486L80.3886 19.22H79.0286Z" fill="black"/>
</svg>
