<svg width="59" height="18" viewBox="0 0 59 18" fill="none" xmlns="http://www.w3.org/2000/svg">
<path d="M3.92 15.2C2.86667 15.2 2.06 14.9 1.5 14.3C0.953333 13.7 0.68 12.8533 0.68 11.76V4.24C0.68 3.14667 0.953333 2.3 1.5 1.7C2.06 1.1 2.86667 0.799999 3.92 0.799999C4.97333 0.799999 5.77333 1.1 6.32 1.7C6.88 2.3 7.16 3.14667 7.16 4.24V5.72H5.08V4.1C5.08 3.23333 4.71333 2.8 3.98 2.8C3.24667 2.8 2.88 3.23333 2.88 4.1V11.92C2.88 12.7733 3.24667 13.2 3.98 13.2C4.71333 13.2 5.08 12.7733 5.08 11.92V9.78H7.16V11.76C7.16 12.8533 6.88 13.7 6.32 14.3C5.77333 14.9 4.97333 15.2 3.92 15.2ZM11.6953 15.2C10.6153 15.2 9.78865 14.8933 9.21531 14.28C8.64198 13.6667 8.35531 12.8 8.35531 11.68V4.32C8.35531 3.2 8.64198 2.33333 9.21531 1.72C9.78865 1.10667 10.6153 0.799999 11.6953 0.799999C12.7753 0.799999 13.602 1.10667 14.1753 1.72C14.7486 2.33333 15.0353 3.2 15.0353 4.32V11.68C15.0353 12.8 14.7486 13.6667 14.1753 14.28C13.602 14.8933 12.7753 15.2 11.6953 15.2ZM11.6953 13.2C12.4553 13.2 12.8353 12.74 12.8353 11.82V4.18C12.8353 3.26 12.4553 2.8 11.6953 2.8C10.9353 2.8 10.5553 3.26 10.5553 4.18V11.82C10.5553 12.74 10.9353 13.2 11.6953 13.2ZM16.5231 0.999999H19.8831C20.9765 0.999999 21.7965 1.29333 22.3431 1.88C22.8898 2.46667 23.1631 3.32667 23.1631 4.46V11.54C23.1631 12.6733 22.8898 13.5333 22.3431 14.12C21.7965 14.7067 20.9765 15 19.8831 15H16.5231V0.999999ZM19.8431 13C20.2031 13 20.4765 12.8933 20.6631 12.68C20.8631 12.4667 20.9631 12.12 20.9631 11.64V4.36C20.9631 3.88 20.8631 3.53333 20.6631 3.32C20.4765 3.10667 20.2031 3 19.8431 3H18.7231V13H19.8431ZM24.6481 0.999999H30.6481V3H26.8481V6.7H29.8681V8.7H26.8481V13H30.6481V15H24.6481V0.999999ZM35.1169 0.999999H38.3569C39.4502 0.999999 40.2702 1.29333 40.8169 1.88C41.3635 2.46667 41.6369 3.32667 41.6369 4.46V5.84C41.6369 6.97333 41.3635 7.83333 40.8169 8.42C40.2702 9.00667 39.4502 9.3 38.3569 9.3H37.3169V15H35.1169V0.999999ZM38.3569 7.3C38.7169 7.3 38.9835 7.2 39.1569 7C39.3435 6.8 39.4369 6.46 39.4369 5.98V4.32C39.4369 3.84 39.3435 3.5 39.1569 3.3C38.9835 3.1 38.7169 3 38.3569 3H37.3169V7.3H38.3569ZM46.0117 15.2C44.9317 15.2 44.1051 14.8933 43.5317 14.28C42.9584 13.6667 42.6717 12.8 42.6717 11.68V4.32C42.6717 3.2 42.9584 2.33333 43.5317 1.72C44.1051 1.10667 44.9317 0.799999 46.0117 0.799999C47.0917 0.799999 47.9184 1.10667 48.4917 1.72C49.0651 2.33333 49.3517 3.2 49.3517 4.32V11.68C49.3517 12.8 49.0651 13.6667 48.4917 14.28C47.9184 14.8933 47.0917 15.2 46.0117 15.2ZM46.0117 13.2C46.7717 13.2 47.1517 12.74 47.1517 11.82V4.18C47.1517 3.26 46.7717 2.8 46.0117 2.8C45.2517 2.8 44.8717 3.26 44.8717 4.18V11.82C44.8717 12.74 45.2517 13.2 46.0117 13.2ZM52.4814 3H50.1814V0.999999H56.9814V3H54.6814V15H52.4814V3ZM57.3017 15H56.5817V12.88H58.7017V14.78L57.6017 17.4H56.5817L57.3017 15Z" fill="black"/>
</svg>
